<svg xmlns="http://www.w3.org/2000/svg" viewBox="0 0 100 100" fill="none" stroke="currentColor" stroke-width="2.5" stroke-linecap="round" stroke-linejoin="round">
  <path d="M50,34 C44,22 28,22 24,36 C20,50 50,72 50,72 C50,72 80,50 76,36 C72,22 56,22 50,34 Z" fill="#fee2e2" stroke="#dc2626" stroke-width="2" />
  <rect x="46" y="36" width="8" height="20" rx="1" fill="#dc2626" />
  <rect x="40" y="42" width="20" height="8" rx="1" fill="#dc2626" />
  <path d="M30,24 C14,24 16,56 34,70 L50,82 L66,70 C84,56 86,24 70,24" fill="none" stroke="#1d4ed8" stroke-width="2.5" />
  <circle cx="30" cy="24" r="3" fill="#1d4ed8" />
  <circle cx="70" cy="24" r="3" fill="#1d4ed8" />
  <circle cx="50" cy="84" r="5" fill="#94a3b8" stroke="#334155" stroke-width="2" />
</svg>
